<?xml version='1.0' encoding='utf-8'?>
<svg xmlns="http://www.w3.org/2000/svg" viewBox="4772.2560 545.1938 3325.5560 330.4182" width="3325.5560" height="330.4182" role="img" aria-label="Astra Commons"><title>Astra Commons</title><path transform="matrix(1,0,0,-1,4987.6496,745.21487)" d="M0 0-50.184 127.493-100.819 0ZM-83.639 193.048H-12.207L114.382-123.424H48.375L21.249-54.252H-122.067L-149.646-123.424H-213.393Z" fill="#ffffff" />
<path transform="matrix(1,0,0,-1,5103.3908,795.39797)" d="M0 0H55.608C56.965-22.153 73.24-33.003 96.75-33.003H98.559C118.903-33.003 132.918-23.961 132.918-9.494 132.918 2.26 125.232 9.042 107.601 12.659L74.597 19.44C30.291 28.482 6.781 51.087 6.781 87.708 6.781 130.658 44.306 157.784 95.394 157.784 155.523 157.784 188.979 126.589 190.335 81.378H133.822C131.562 100.819 117.999 112.122 95.394 112.122H93.585C73.24 112.122 61.938 102.627 61.938 89.968 61.938 77.762 71.433 71.884 90.421 67.815L127.493 60.129C169.538 51.54 191.691 28.935 191.691-7.686 191.691-49.279 155.071-78.214 96.298-78.214 34.812-78.214 1.356-47.019 0 0" fill="#ffffff" />
<path transform="matrix(1,0,0,-1,5352.9465,802.63186)" d="M0 0V111.669H-47.471V160.044H0V232.381H58.773V160.044H115.286V111.669H58.773V9.946C58.773-9.946 65.103-16.275 85.447-16.275H117.547V-66.007H66.007C22.605-66.007 0-42.498 0 0" fill="#ffffff" />
<path transform="matrix(1,0,0,-1,5504.3977,642.5874)" d="M0 0H58.773V-33.456C68.72-14.015 97.654 2.713 129.754 2.713H139.248V-51.54H126.137C85.9-51.54 58.773-76.405 58.773-122.068V-226.051H0Z" fill="#ffffff" />
<path transform="matrix(1,0,0,-1,5801.885,774.6011)" d="M0 0V4.973L-57.869-.452C-84.995-3.165-95.394-12.659-95.394-27.126-95.394-42.498-81.83-51.54-59.226-51.54H-57.869C-28.482-51.54 0-33.908 0 0M-151.002-28.935C-151.002 14.015-118.902 37.072-62.39 42.045L0 47.471V53.348C0 75.049-15.823 89.064-43.854 89.064H-45.662C-70.527 89.064-85.899 77.309-89.516 63.294H-146.481C-141.508 102.175-102.175 136.987-42.949 136.987 19.893 136.987 56.061 100.819 56.061 48.375V-43.402C56.061-58.773 56.965-78.666 59.678-94.038H4.974C2.713-85.448 1.809-75.954 1.356-69.172-12.206-84.996-40.237-99.011-72.336-99.011-119.807-99.011-151.002-71.433-151.002-28.935" fill="#ffffff" />
<path transform="matrix(1,0,0,-1,5997.1857,710.40286)" d="M0 0C0 89.969 73.24 163.209 163.209 163.209 252.272 163.209 302.456 96.298 311.046 49.279H244.587C230.12 83.639 197.116 104.436 161.4 104.436H159.592C106.696 104.436 64.198 57.417 64.198 0 64.198-57.417 106.696-104.436 159.592-104.436H161.4C197.116-104.436 230.12-83.639 244.587-49.279H311.046C302.456-96.298 252.272-163.209 163.209-163.209 73.24-163.209 0-89.968 0 0" fill="#ffffff" />
<path transform="matrix(1,0,0,-1,6511.2199,755.16116)" d="M0 0C0 39.785-28.03 65.555-61.034 65.555H-62.842C-95.846 65.555-123.876 39.785-123.876 0-123.876-39.785-95.846-66.459-62.842-66.459H-61.034C-28.03-66.459 0-39.785 0 0M-182.649 0C-182.649 65.555-131.562 117.547-61.938 117.547 7.686 117.547 58.773 65.555 58.773 0 58.773-65.555 7.686-118.451-61.938-118.451-131.562-118.451-182.649-65.555-182.649 0" fill="#ffffff" />
<path transform="matrix(1,0,0,-1,6604.796,642.5874)" d="M0 0H58.773V-23.509C70.98-9.042 92.682 4.973 122.068 4.973 151.907 4.973 177.225-6.781 192.596-29.839 208.42-8.138 235.546 4.973 265.837 4.973 318.28 4.973 350.832-28.482 350.832-80.474V-226.051H292.059V-92.681C292.059-64.199 275.331-47.471 250.014-47.471H248.205C222.435-47.471 204.803-70.528 204.803-100.819V-226.051H146.029V-92.681C146.029-64.199 129.302-47.471 103.984-47.471H102.176C76.406-47.471 58.773-70.528 58.773-100.819V-226.051H0Z" fill="#ffffff" />
<path transform="matrix(1,0,0,-1,7002.1906,642.5874)" d="M0 0H58.773V-23.509C70.98-9.042 92.682 4.973 122.068 4.973 151.907 4.973 177.225-6.781 192.596-29.839 208.42-8.138 235.546 4.973 265.837 4.973 318.28 4.973 350.832-28.482 350.832-80.474V-226.051H292.059V-92.681C292.059-64.199 275.331-47.471 250.014-47.471H248.205C222.435-47.471 204.803-70.528 204.803-100.819V-226.051H146.029V-92.681C146.029-64.199 129.302-47.471 103.984-47.471H102.176C76.406-47.471 58.773-70.528 58.773-100.819V-226.051H0Z" fill="#ffffff" />
<path transform="matrix(1,0,0,-1,7568.2199,755.16116)" d="M0 0C0 39.785-28.03 65.555-61.034 65.555H-62.842C-95.846 65.555-123.876 39.785-123.876 0-123.876-39.785-95.846-66.459-62.842-66.459H-61.034C-28.03-66.459 0-39.785 0 0M-182.649 0C-182.649 65.555-131.562 117.547-61.938 117.547 7.686 117.547 58.773 65.555 58.773 0 58.773-65.555 7.686-118.451-61.938-118.451-131.562-118.451-182.649-65.555-182.649 0" fill="#ffffff" />
<path transform="matrix(1,0,0,-1,7661.796,642.5874)" d="M0 0H58.773V-23.509C71.433-8.59 94.942 4.973 124.329 4.973 177.225 4.973 212.488-30.291 212.488-89.064V-226.051H153.716V-96.298C153.716-65.103 136.083-47.471 108.505-47.471H106.696C78.214-47.471 58.773-72.789 58.773-105.792V-226.051H0Z" fill="#ffffff" />
<path transform="matrix(1,0,0,-1,7904.12,795.39797)" d="M0 0H55.608C56.965-22.153 73.241-33.003 96.75-33.003H98.559C118.903-33.003 132.918-23.961 132.918-9.494 132.918 2.26 125.232 9.042 107.601 12.659L74.597 19.44C30.291 28.482 6.781 51.087 6.781 87.708 6.781 130.658 44.307 157.784 95.394 157.784 155.523 157.784 188.979 126.589 190.335 81.378H133.822C131.562 100.819 117.999 112.122 95.394 112.122H93.586C73.241 112.122 61.938 102.627 61.938 89.968 61.938 77.762 71.433 71.884 90.421 67.815L127.493 60.129C169.539 51.54 191.691 28.935 191.691-7.686 191.691-49.279 155.071-78.214 96.298-78.214 34.813-78.214 1.356-47.019 0 0" fill="#ffffff" />
</svg>